<?xml version="1.0" standalone="no"?>
<!DOCTYPE svg PUBLIC "-//W3C//DTD SVG 20010904//EN"
 "http://www.w3.org/TR/2001/REC-SVG-20010904/DTD/svg10.dtd">
<svg version="1.0" xmlns="http://www.w3.org/2000/svg"
 width="720.000000pt" height="720.000000pt" viewBox="0 0 720.000000 720.000000"
 preserveAspectRatio="xMidYMid meet">
<metadata>
Created by potrace 1.14, written by Peter Selinger 2001-2017
</metadata>
<g transform="translate(0.000000,720.000000) scale(0.100000,-0.100000)"
fill="#000000" stroke="none">
<path d="M20 7181 c0 -11 -4 -23 -10 -26 -5 -3 -10 -13 -10 -21 0 -11 4 -12
18 -5 11 6 24 6 33 0 11 -7 11 -9 -3 -9 -21 0 -25 -39 -5 -59 10 -10 8 -11 -7
-5 -13 5 -17 4 -12 -4 12 -20 34 -13 38 11 2 14 9 21 19 19 9 -1 19 4 23 13 3
8 12 15 20 15 8 0 16 3 19 8 2 4 2 2 1 -5 -2 -7 1 -15 6 -18 6 -4 10 -1 10 4
0 8 7 7 20 -1 10 -7 22 -9 26 -6 10 11 -6 28 -27 28 -10 0 -19 5 -19 10 0 6 6
10 14 10 8 0 18 -4 21 -10 8 -13 52 -13 61 1 3 6 15 9 25 6 11 -3 26 2 35 10
13 14 13 17 -2 34 -12 13 -21 16 -28 9 -5 -5 -18 -10 -29 -10 -10 0 -16 -4
-12 -9 7 -12 -32 -34 -45 -26 -6 3 -10 13 -10 21 0 8 -7 14 -15 14 -8 0 -15 6
-15 13 0 8 -3 8 -9 -2 -7 -11 -13 -12 -23 -4 -21 17 -69 13 -66 -5 2 -8 -3
-17 -11 -20 -9 -3 -11 1 -6 17 5 15 2 21 -9 21 -9 0 -16 -8 -16 -19z m90 -35
c0 -13 -6 -26 -14 -29 -11 -5 -12 0 -3 24 14 35 17 36 17 5z m198 13 c-2 -6
-8 -10 -13 -10 -5 0 -11 4 -13 10 -2 6 4 11 13 11 9 0 15 -5 13 -11z"/>
<path d="M188 7188 c8 -8 17 -8 34 0 22 10 21 11 -11 11 -27 1 -32 -2 -23 -11z"/>
<path d="M7178 7193 c7 -3 16 -2 19 1 4 3 -2 6 -13 5 -11 0 -14 -3 -6 -6z"/>
<path d="M311 7094 c0 -11 3 -14 6 -6 3 7 2 16 -1 19 -3 4 -6 -2 -5 -13z"/>
<path d="M110 7060 c0 -5 5 -10 10 -10 6 0 10 -8 10 -17 0 -12 3 -14 10 -7 14
14 2 44 -16 44 -8 0 -14 -4 -14 -10z"/>
<path d="M13 6663 c9 -2 25 -2 35 0 9 3 1 5 -18 5 -19 0 -27 -2 -17 -5z"/>
<path d="M77 6644 c-12 -13 -8 -20 14 -21 11 -1 19 3 17 9 -5 15 -22 21 -31
12z"/>
<path d="M20 6629 c0 -5 5 -7 10 -4 6 3 10 8 10 11 0 2 -4 4 -10 4 -5 0 -10
-5 -10 -11z"/>
<path d="M0 6581 c0 -25 6 -27 13 -6 4 8 2 17 -3 20 -6 4 -10 -3 -10 -14z"/>
<path d="M40 6581 c0 -17 18 -21 24 -6 3 9 0 15 -9 15 -8 0 -15 -4 -15 -9z"/>
<path d="M81 6574 c0 -11 3 -14 6 -6 3 7 2 16 -1 19 -3 4 -6 -2 -5 -13z"/>
<path d="M165 6560 c-3 -6 1 -7 9 -4 18 7 21 14 7 14 -6 0 -13 -4 -16 -10z"/>
<path d="M0 6520 c0 -5 5 -10 10 -10 6 0 10 5 10 10 0 6 -4 10 -10 10 -5 0
-10 -4 -10 -10z"/>
<path d="M70 6521 c0 -13 39 -35 48 -27 3 3 0 6 -6 6 -6 0 -18 7 -26 16 -9 8
-16 11 -16 5z"/>
<path d="M106 6445 c-3 -8 -1 -15 4 -15 13 0 22 18 11 24 -5 3 -11 -1 -15 -9z"/>
<path d="M90 6370 c0 -5 7 -10 15 -10 8 0 15 5 15 10 0 6 -7 10 -15 10 -8 0
-15 -4 -15 -10z"/>
<path d="M25 6360 c4 -6 11 -8 16 -5 14 9 11 15 -7 15 -8 0 -12 -5 -9 -10z"/>
<path d="M40 6285 c0 -8 5 -15 10 -15 6 0 10 7 10 15 0 8 -4 15 -10 15 -5 0
-10 -7 -10 -15z"/>
<path d="M20 6184 c0 -8 5 -12 10 -9 6 3 10 10 10 16 0 5 -4 9 -10 9 -5 0 -10
-7 -10 -16z"/>
<path d="M3560 5441 c8 -6 13 -11 10 -12 -3 0 -16 -2 -30 -3 -14 -2 -32 -5
-40 -7 -8 -2 -14 2 -12 9 1 6 -5 12 -13 12 -8 0 -15 -3 -15 -8 0 -12 -75 -31
-99 -25 -14 4 -26 1 -31 -7 -7 -11 -11 -11 -24 -1 -13 11 -22 10 -52 -4 -19
-9 -42 -14 -50 -11 -8 3 -30 -1 -49 -8 -18 -8 -51 -16 -72 -17 -23 -2 -46 -12
-58 -24 -24 -25 -62 -38 -68 -22 -2 6 -13 1 -25 -11 -12 -12 -31 -22 -42 -22
-11 0 -23 -7 -26 -15 -4 -8 -14 -15 -24 -15 -25 0 -82 -30 -107 -57 -12 -13
-33 -23 -47 -23 -17 0 -27 -8 -34 -27 -6 -16 -11 -22 -11 -15 -1 10 -9 7 -30
-7 -16 -12 -34 -21 -40 -21 -6 0 -11 -5 -11 -11 0 -5 -5 -7 -11 -4 -10 7 -34
-18 -39 -40 -7 -36 -36 -64 -72 -70 -21 -4 -36 -11 -33 -16 4 -5 -5 -19 -18
-31 -13 -13 -50 -48 -83 -79 -33 -31 -59 -60 -57 -66 2 -5 -10 -19 -27 -31
-16 -13 -30 -29 -30 -37 0 -8 -14 -22 -31 -32 -19 -11 -28 -24 -26 -34 3 -10
-7 -25 -24 -38 -16 -12 -29 -30 -29 -40 0 -11 -3 -21 -7 -24 -5 -2 -2 -2 5 -1
6 2 12 -3 12 -11 0 -10 -11 -15 -32 -16 -30 0 -31 -1 -10 -9 20 -8 21 -12 10
-30 -7 -11 -17 -20 -22 -20 -5 0 -19 -11 -32 -25 -18 -20 -20 -27 -10 -37 14
-15 16 -57 3 -55 -5 1 -12 -4 -14 -10 -3 -7 0 -13 6 -13 6 0 11 -5 11 -11 0
-7 -10 -9 -25 -7 -24 5 -29 -1 -26 -29 1 -6 -3 -14 -8 -17 -15 -10 -1 -44 21
-49 26 -7 14 -27 -18 -27 -19 0 -24 -5 -24 -25 0 -18 -5 -25 -20 -25 -11 0
-20 -4 -20 -10 0 -18 31 -10 50 13 15 17 21 19 31 10 10 -10 6 -19 -18 -43
-17 -17 -39 -33 -49 -35 -11 -2 -21 -4 -23 -4 -2 -1 2 -8 9 -16 7 -8 10 -22 6
-30 -3 -8 0 -15 7 -15 7 -1 5 -6 -5 -14 -18 -14 -24 -36 -10 -36 4 0 13 5 19
11 7 7 13 7 17 1 8 -13 -3 -42 -16 -42 -5 0 -6 -15 -3 -33 4 -22 1 -48 -10
-73 -15 -36 -15 -39 1 -51 16 -12 16 -13 1 -19 -22 -8 -22 -40 0 -48 14 -6 14
-8 -3 -21 -19 -13 -19 -14 1 -29 l20 -16 -20 -16 c-19 -14 -19 -16 -2 -25 14
-8 17 -18 12 -40 -4 -17 -2 -36 5 -44 8 -9 8 -15 0 -20 -6 -4 -8 -15 -5 -25 3
-11 0 -20 -7 -23 -7 -2 -2 -2 11 0 20 4 22 2 13 -10 -10 -11 -9 -21 2 -42 8
-16 13 -32 10 -37 -3 -5 -1 -15 5 -22 9 -10 8 -15 -4 -20 -8 -3 -15 -13 -15
-22 0 -10 3 -14 6 -11 6 6 25 -29 55 -101 8 -17 17 -32 21 -32 10 0 10 34 1
43 -3 4 -8 19 -9 33 -2 14 -8 32 -15 40 -6 8 -13 31 -14 51 -2 21 -4 43 -5 48
-5 21 0 45 9 45 5 0 9 -18 9 -41 1 -22 5 -46 11 -53 6 -7 8 -22 4 -34 -3 -12
-1 -22 5 -22 6 0 13 -15 17 -32 8 -40 27 -100 36 -113 3 -5 9 -22 12 -36 6
-24 4 -26 -23 -24 -20 1 -30 -3 -30 -12 0 -9 8 -13 24 -11 13 1 31 -3 40 -11
18 -15 22 -51 5 -51 -5 0 -8 -4 -4 -10 3 -5 12 -7 19 -4 20 8 30 -14 14 -33
-11 -14 -10 -15 11 -8 19 6 23 4 18 -8 -3 -9 -2 -17 2 -19 10 -4 81 -116 81
-127 0 -5 6 -16 13 -23 7 -7 28 -34 47 -60 18 -27 37 -48 41 -48 4 0 21 -20
37 -45 17 -25 49 -62 71 -82 23 -19 41 -40 41 -45 0 -12 59 -68 71 -68 5 0 9
-4 9 -9 0 -5 9 -13 21 -16 12 -4 29 -14 39 -23 71 -67 282 -187 390 -222 30
-10 69 -25 85 -33 45 -23 167 -57 203 -57 18 0 32 -5 32 -10 0 -6 11 -8 26 -4
16 4 25 3 21 -2 -3 -6 18 -10 51 -11 31 -1 69 -6 85 -12 15 -6 27 -7 27 -3 0
4 18 6 40 4 22 -2 40 -9 40 -14 0 -6 6 -6 15 2 8 6 20 8 26 4 7 -4 9 -3 6 2
-6 11 166 10 183 -1 5 -3 10 -1 10 4 0 6 9 11 20 11 11 0 20 3 20 8 0 4 12 8
28 9 15 1 43 4 62 7 19 3 50 7 68 9 19 2 37 8 40 13 4 5 25 9 47 9 22 0 52 8
66 17 14 10 48 25 75 34 27 9 56 22 65 30 8 8 25 14 37 14 11 0 25 7 30 16 5
9 13 16 18 16 18 1 39 12 51 27 6 9 15 16 20 16 22 2 52 17 57 30 3 8 15 15
26 15 11 0 33 12 48 28 15 15 41 36 58 47 17 11 47 31 67 43 21 13 37 30 37
37 0 8 9 16 19 20 11 3 33 21 49 39 15 18 36 35 46 39 9 4 14 11 11 17 -3 6 1
13 9 16 9 3 16 11 16 18 0 6 20 32 45 58 25 26 45 51 45 56 0 5 7 15 15 22 8
7 12 16 9 21 -3 5 -1 9 4 9 5 0 12 8 16 18 3 9 19 35 36 57 16 22 29 47 30 56
0 9 7 22 15 29 8 7 15 23 15 35 0 12 7 28 15 35 8 7 15 19 15 27 0 8 12 40 26
71 15 31 27 62 29 67 1 6 5 17 8 25 10 26 20 74 24 110 7 69 8 75 15 85 3 6 9
46 13 90 4 44 15 90 23 103 13 21 13 25 0 38 -11 12 -13 25 -7 57 4 23 3 47
-2 53 -5 6 -9 22 -8 35 0 13 -3 44 -7 68 -5 32 -3 45 7 52 12 8 12 10 0 18
-10 7 -12 20 -7 50 5 33 3 41 -9 41 -21 0 -19 38 3 43 16 4 16 5 0 6 -11 1
-18 9 -18 21 0 11 -4 20 -9 20 -6 0 -9 9 -8 20 1 11 5 20 9 20 4 0 8 11 8 25
0 18 -5 25 -19 25 -26 0 -35 17 -33 61 2 29 -1 38 -17 42 -17 4 -18 8 -8 46 6
23 17 41 25 41 8 0 12 -6 9 -14 -3 -8 0 -20 8 -26 8 -6 12 -17 9 -24 -9 -23
18 -36 45 -22 15 9 20 16 12 20 -6 4 -11 2 -11 -3 0 -6 -4 -11 -10 -11 -12 0
-42 69 -35 80 3 4 -4 10 -15 13 -12 3 -21 14 -22 29 0 12 -2 30 -2 38 -1 9 -9
14 -22 12 -12 -1 -27 4 -34 13 -7 8 -23 15 -36 15 -13 0 -24 5 -24 10 0 6 6
10 13 10 8 0 7 4 -3 10 -11 7 -6 8 16 4 27 -5 31 -3 29 16 -1 13 -14 36 -28
52 -23 24 -30 27 -48 17 -25 -13 -41 -2 -16 12 21 12 22 35 2 43 -8 3 -15 17
-15 32 0 16 -10 36 -26 50 -14 14 -19 24 -12 24 7 1 2 7 -12 15 -14 7 -32 24
-40 36 -36 54 -83 98 -107 101 -15 2 -29 10 -31 18 -5 13 -3 13 12 1 15 -12
19 -12 33 2 15 15 14 17 -10 26 -15 6 -27 16 -27 23 0 9 -3 9 -12 0 -17 -17
-28 -15 -21 4 5 13 -1 15 -28 11 -19 -2 -26 -2 -16 0 26 7 16 24 -29 49 -22
13 -38 29 -36 37 2 13 -24 30 -50 32 -12 0 -21 15 -10 15 7 0 12 4 12 8 0 9
-59 32 -83 32 -11 0 -17 8 -17 21 0 28 -26 52 -51 46 -12 -3 -22 0 -26 9 -3 8
-16 14 -29 14 -13 0 -24 5 -24 11 0 5 -4 8 -9 5 -5 -3 -11 1 -15 9 -3 8 -14
15 -25 15 -11 0 -27 10 -36 23 -15 20 -16 20 -11 2 5 -17 1 -20 -24 -21 -17
-1 -30 3 -30 7 0 5 5 9 10 9 6 0 10 7 10 15 0 21 -28 19 -33 -2 -4 -14 -5 -12
-6 5 -1 18 -5 21 -23 17 -24 -5 -51 10 -61 35 -4 12 -6 11 -6 -2 -1 -10 -8
-18 -17 -18 -12 0 -15 6 -11 21 6 21 4 21 -54 15 -48 -5 -64 -3 -77 10 -11 11
-27 15 -53 11 -20 -3 -42 0 -47 5 -6 6 -18 6 -32 -2 -21 -11 -22 -10 -17 9 6
24 0 25 -37 11 -14 -5 -26 -6 -26 -1 0 13 -53 21 -67 10 -7 -7 -14 -6 -18 1
-4 6 -16 8 -26 5 -11 -4 -26 -2 -34 5 -10 8 -15 8 -20 -1 -5 -7 -10 -7 -14 -1
-3 5 -17 12 -31 16 -19 6 -21 5 -10 -3z m90 -35 c0 -11 -19 -15 -25 -6 -3 5 1
10 9 10 9 0 16 -2 16 -4z m255 -46 c3 -5 2 -10 -4 -10 -5 0 -13 5 -16 10 -3 6
-2 10 4 10 5 0 13 -4 16 -10z m380 -160 c3 -5 1 -10 -4 -10 -6 0 -11 5 -11 10
0 6 2 10 4 10 3 0 8 -4 11 -10z m230 -29 c3 -5 1 -12 -5 -16 -5 -3 -10 1 -10
9 0 18 6 21 15 7z m525 -527 c0 -18 -31 -26 -47 -13 -8 7 -12 18 -9 25 3 7 1
16 -4 19 -5 3 -7 12 -4 20 5 12 12 9 35 -13 16 -15 29 -32 29 -38z m67 -116
c-3 -8 -6 -5 -6 6 -1 11 2 17 5 13 3 -3 4 -12 1 -19z m71 -150 c-6 -18 -25
-20 -31 -3 -5 10 0 15 14 15 12 0 19 -5 17 -12z m-3232 -615 c-10 -10 -19 5
-10 18 6 11 8 11 12 0 2 -7 1 -15 -2 -18z m-9 -150 c-3 -10 -5 -2 -5 17 0 19
2 27 5 18 2 -10 2 -26 0 -35z m3 -65 c0 -19 -2 -20 -10 -8 -13 19 -13 30 0 30
6 0 10 -10 10 -22z m10 -43 c0 -8 -4 -15 -10 -15 -5 0 -10 7 -10 15 0 8 5 15
10 15 6 0 10 -7 10 -15z m7 -67 c-3 -8 -6 -5 -6 6 -1 11 2 17 5 13 3 -3 4 -12
1 -19z m1743 -242 c0 -3 -4 -8 -10 -11 -5 -3 -10 -1 -10 4 0 6 5 11 10 11 6 0
10 -2 10 -4z m170 -6 c0 -5 -2 -10 -4 -10 -3 0 -8 5 -11 10 -3 6 -1 10 4 10 6
0 11 -4 11 -10z m110 -59 l25 -7 -25 -7 c-13 -3 -27 -3 -30 2 -3 4 -12 11 -20
14 -22 8 19 7 50 -2z m115 -1 c3 -5 1 -10 -4 -10 -6 0 -11 5 -11 10 0 6 2 10
4 10 3 0 8 -4 11 -10z m68 -7 c-7 -2 -19 -2 -25 0 -7 3 -2 5 12 5 14 0 19 -2
13 -5z m-283 -21 c0 -11 15 -22 44 -33 41 -15 46 -15 60 0 15 14 16 13 17 -4
2 -26 2 -26 -6 -50 -6 -18 -5 -18 13 3 26 28 52 29 52 1 0 -15 4 -19 16 -15 9
3 20 6 25 6 5 0 9 9 9 20 0 11 4 20 8 20 5 0 18 -9 30 -20 12 -11 32 -20 46
-20 14 0 28 -4 31 -10 9 -14 -48 -13 -63 2 -9 9 -15 9 -23 1 -15 -15 -3 -33
22 -33 10 0 18 -6 17 -12 -2 -8 10 -14 30 -16 27 -3 32 0 32 17 0 22 33 30 45
11 3 -5 -3 -10 -14 -10 -24 0 -28 -15 -6 -24 22 -8 18 -26 -5 -26 -11 0 -20
-7 -20 -15 0 -18 -21 -20 -37 -4 -6 6 -16 8 -23 4 -8 -5 -6 -11 6 -20 12 -8
15 -18 9 -31 -4 -10 -7 -24 -7 -29 3 -15 -50 -35 -75 -29 -18 5 -25 1 -31 -17
-6 -15 -22 -26 -48 -34 -23 -6 -43 -20 -50 -33 l-11 -22 -10 22 c-10 23 -11
22 -24 -10 -14 -32 -16 -33 -84 -38 -38 -3 -78 -6 -87 -7 -9 -1 -14 -5 -11
-10 2 -4 -6 -5 -19 -2 -12 3 -30 1 -38 -4 -29 -19 12 -31 63 -17 21 5 28 3 25
-5 -4 -13 -13 -15 -85 -21 -44 -3 -48 -1 -45 18 4 27 -22 38 -51 23 -15 -9
-22 -9 -25 -1 -2 7 -15 9 -33 5 -24 -4 -29 -2 -30 13 0 17 -2 16 -11 -3 -12
-25 -23 -29 -33 -13 -5 8 -11 7 -21 -1 -11 -9 -14 -7 -14 15 0 26 -18 34 -36
16 -10 -10 -54 -2 -54 11 0 4 5 11 10 14 12 7 14 26 3 24 -20 -3 -27 2 -13 11
8 5 11 12 8 15 -14 15 -30 -8 -24 -36 6 -32 -8 -46 -28 -30 -8 7 -20 10 -27 9
-7 -2 -15 8 -19 22 -5 19 -13 25 -32 25 -15 -1 -25 2 -22 6 2 4 -6 10 -19 13
l-22 7 25 10 c17 7 26 7 28 0 5 -14 42 -14 42 -1 0 6 -9 10 -20 10 -11 0 -20
5 -20 10 0 6 -10 10 -22 10 -17 0 -20 3 -9 9 17 11 7 41 -13 41 -7 0 -16 11
-18 25 -6 28 -6 27 16 19 9 -3 16 -12 16 -19 0 -14 37 -27 44 -16 3 4 1 13 -4
21 -6 9 -3 18 8 26 18 14 20 12 -33 29 -18 5 -20 41 -3 51 8 5 9 2 5 -9 -5
-14 0 -17 33 -17 34 0 40 -3 40 -21 0 -14 5 -19 18 -17 22 4 30 48 8 48 -10 0
-16 9 -16 25 0 31 16 33 26 3 3 -12 13 -29 21 -37 10 -9 13 -25 9 -43 -3 -15
-1 -28 4 -28 5 0 10 12 12 27 3 26 4 26 21 9 10 -10 16 -25 12 -33 -4 -12 0
-14 17 -8 13 4 32 6 43 6 28 -1 65 20 65 36 0 17 24 43 40 43 14 0 40 -25 40
-39 0 -6 7 -11 15 -11 8 0 15 -4 15 -9 0 -11 -34 -20 -80 -22 -30 -1 -28 -3
15 -9 28 -4 54 -3 60 1 5 5 19 9 32 9 13 0 23 5 23 10 0 6 6 10 14 10 7 0 19
7 26 15 18 21 40 19 40 -5 0 -12 5 -17 14 -14 8 3 17 1 20 -5 4 -6 14 -3 26 9
11 11 29 20 40 20 24 0 26 15 3 24 -9 4 -21 1 -26 -6 -6 -10 -7 -9 -4 4 4 10
-1 19 -11 23 -16 6 -16 7 1 19 9 7 17 21 17 30 0 9 -8 16 -17 16 -10 0 -24 4
-30 8 -8 5 1 8 22 8 29 0 35 -4 35 -20 0 -30 11 -66 20 -66 13 0 21 49 14 86
-5 29 -10 35 -25 31 -21 -6 -25 13 -7 31 17 17 28 15 28 -6z m-553 -18 c-3 -3
-12 -4 -19 -1 -8 3 -5 6 6 6 11 1 17 -2 13 -5z m48 -14 c3 -5 1 -10 -4 -10 -6
0 -11 5 -11 10 0 6 2 10 4 10 3 0 8 -4 11 -10z m815 -16 c0 -17 -22 -14 -28 4
-2 7 3 12 12 12 9 0 16 -7 16 -16z m79 -8 c-2 -2 -18 -8 -34 -12 l-30 -7 25
21 c15 12 29 17 34 11 5 -5 8 -11 5 -13z m-542 -2 c-3 -3 -12 -4 -19 -1 -8 3
-5 6 6 6 11 1 17 -2 13 -5z m-487 -14 c0 -5 -7 -10 -15 -10 -8 0 -15 5 -15 10
0 6 7 10 15 10 8 0 15 -4 15 -10z m380 6 c0 -3 -4 -8 -10 -11 -5 -3 -10 -1
-10 4 0 6 5 11 10 11 6 0 10 -2 10 -4z m140 -6 c0 -5 -2 -10 -4 -10 -3 0 -8 5
-11 10 -3 6 -1 10 4 10 6 0 11 -4 11 -10z m-316 -15 c-7 -16 -24 -21 -24 -6 0
8 7 13 27 20 1 1 0 -6 -3 -14z m1632 -22 c-10 -10 -19 5 -10 18 6 11 8 11 12
0 2 -7 1 -15 -2 -18z m-1346 -4 c0 -6 -4 -7 -10 -4 -5 3 -10 11 -10 16 0 6 5
7 10 4 6 -3 10 -11 10 -16z m-460 -14 c0 -8 -7 -15 -15 -15 -8 0 -15 7 -15 15
0 8 7 15 15 15 8 0 15 -7 15 -15z m175 -8 c16 -4 14 -5 -6 -6 -17 -1 -29 5
-33 15 -5 13 -3 14 6 6 7 -5 22 -12 33 -15z m1614 -28 c-10 -20 -29 -26 -29
-10 0 6 5 13 10 16 6 4 8 11 5 16 -3 5 1 6 9 3 12 -5 13 -11 5 -25z m-1416 14
c-7 -2 -21 -2 -30 0 -10 3 -4 5 12 5 17 0 24 -2 18 -5z m-540 -39 c8 -8 -10
-44 -22 -44 -5 0 -6 11 -3 25 4 25 13 31 25 19z m1927 -28 c0 -3 -4 -8 -10
-11 -5 -3 -10 -1 -10 4 0 6 5 11 10 11 6 0 10 -2 10 -4z m-2773 -28 c-3 -8 -6
-5 -6 6 -1 11 2 17 5 13 3 -3 4 -12 1 -19z m2733 -29 c-7 -11 -14 -18 -17 -15
-3 3 0 12 7 21 18 21 23 19 10 -6z m-1840 -19 c0 -5 -5 -10 -11 -10 -5 0 -7 5
-4 10 3 6 8 10 11 10 2 0 4 -4 4 -10z m1530 0 c0 -5 -5 -10 -11 -10 -5 0 -7 5
-4 10 3 6 8 10 11 10 2 0 4 -4 4 -10z m272 -61 c-8 -9 -25 -29 -39 -44 -14
-15 -33 -44 -44 -64 -26 -48 -68 -94 -101 -108 -16 -7 -28 -18 -28 -24 0 -6
-7 -8 -16 -5 -11 4 -14 1 -12 -12 2 -9 -7 -27 -22 -39 -33 -30 -50 -30 -23 0
11 12 24 32 28 45 3 12 14 22 25 22 10 0 22 9 25 20 3 11 13 20 21 20 8 0 14
6 14 13 0 7 14 23 30 35 17 13 30 29 30 37 0 8 10 21 21 29 20 13 38 39 55 76
4 8 14 23 23 33 14 17 16 17 21 1 4 -10 0 -25 -8 -35z m-321 -10 c-12 -11 -21
-29 -21 -39 0 -11 -4 -20 -10 -20 -5 0 -10 -8 -10 -17 0 -22 -71 -83 -97 -84
-11 0 -13 -3 -5 -6 10 -4 10 -8 2 -18 -6 -8 -18 -11 -27 -8 -12 5 -14 1 -9
-15 6 -18 4 -20 -31 -15 -30 4 -42 1 -57 -16 -11 -12 -15 -21 -10 -22 5 -1 -2
-4 -16 -8 -14 -4 -29 -17 -35 -29 -5 -12 -16 -20 -23 -17 -7 2 -27 -4 -45 -15
-34 -21 -77 -27 -77 -10 0 6 -5 10 -11 10 -5 0 -8 -4 -5 -9 4 -5 -4 -7 -16 -3
-20 5 -21 3 -11 -10 15 -17 7 -29 -13 -21 -9 3 -14 -1 -14 -12 0 -9 -5 -13
-11 -10 -6 4 -27 -6 -47 -22 -53 -42 -61 -46 -76 -34 -9 7 -19 6 -36 -6 -12
-9 -44 -18 -69 -20 -25 -2 -59 -6 -76 -9 -93 -16 -101 -16 -114 0 -11 12 -17
13 -35 4 -11 -6 -26 -18 -32 -26 -10 -13 -15 -12 -40 11 -21 20 -31 23 -41 15
-10 -8 -13 -6 -13 6 0 23 -17 20 -23 -5 l-6 -21 -33 19 c-18 11 -55 26 -83 33
-27 7 -54 17 -60 21 -5 5 -17 9 -27 9 -33 0 -128 41 -128 56 0 7 -11 16 -25
20 -14 3 -25 10 -25 15 0 5 -15 9 -33 9 -18 0 -37 4 -43 9 -9 10 -50 19 -91
20 -13 1 -23 7 -23 16 0 10 -10 15 -27 16 -16 0 -22 3 -15 6 6 2 12 14 12 25
0 16 4 19 23 14 85 -27 134 -39 150 -38 9 0 15 -3 13 -7 -3 -4 11 -13 30 -20
18 -7 34 -17 34 -22 0 -6 6 -9 13 -6 6 2 17 -2 22 -9 6 -8 19 -15 30 -17 20
-3 213 -63 250 -78 27 -10 74 -21 110 -24 134 -13 172 -14 230 -5 36 6 80 17
98 24 17 8 52 22 77 32 25 10 47 21 50 24 3 3 43 21 90 38 104 40 146 60 186
90 17 12 38 22 47 22 10 0 17 7 17 15 0 9 12 20 28 26 41 15 92 43 92 51 0 3
10 10 23 14 12 4 36 17 53 30 17 13 35 24 41 24 5 0 15 11 21 25 14 31 46 64
51 52 2 -5 -6 -17 -18 -28z m-571 -65 c0 -17 -22 -14 -28 4 -2 7 3 12 12 12 9
0 16 -7 16 -16z m-1683 -16 c-3 -8 -6 -5 -6 6 -1 11 2 17 5 13 3 -3 4 -12 1
-19z m58 -59 c3 -10 15 -21 26 -24 10 -4 19 -13 19 -21 0 -23 -26 -16 -38 11
-6 14 -18 25 -26 25 -15 0 -26 21 -26 47 0 14 3 14 20 -2 11 -10 22 -26 25
-36z m1420 12 c-6 -5 -25 10 -25 20 0 5 6 4 14 -3 8 -7 12 -15 11 -17z m883 1
c2 -12 -1 -22 -7 -22 -6 0 -11 -6 -11 -14 0 -8 -6 -16 -13 -19 -8 -3 -22 -21
-31 -41 -9 -20 -21 -34 -27 -31 -5 4 -9 -6 -9 -21 0 -27 -1 -27 -14 -8 -14 18
-15 18 -21 1 -4 -10 -20 -24 -36 -33 -16 -8 -29 -21 -29 -30 0 -8 -12 -19 -27
-25 -27 -10 -54 -39 -47 -50 8 -14 46 4 56 27 6 12 19 25 31 28 12 3 17 10 14
19 -4 11 0 13 14 10 13 -4 19 0 19 11 0 18 8 20 30 6 13 -8 12 -11 -5 -24 -11
-8 -31 -23 -44 -35 -13 -12 -30 -21 -37 -21 -7 0 -14 -3 -16 -7 -5 -12 -91
-70 -115 -77 -15 -5 -24 -2 -31 10 -6 10 -16 15 -26 11 -23 -9 -20 -27 5 -27
12 0 19 -5 17 -12 -5 -14 -25 -25 -95 -54 -24 -9 -43 -20 -43 -25 0 -4 -8 -5
-19 -2 -10 3 -22 0 -25 -6 -4 -6 -15 -11 -25 -11 -10 0 -32 -7 -50 -16 -18 -9
-65 -21 -104 -27 -40 -6 -74 -13 -77 -16 -3 -3 -18 -7 -35 -9 -16 -2 -33 -8
-36 -14 -5 -7 -8 -7 -13 0 -4 7 -17 7 -34 2 -34 -9 -86 -12 -202 -11 -88 1
-111 3 -220 21 -36 6 -77 12 -92 13 -14 1 -30 5 -34 10 -4 4 -18 7 -31 7 -13
0 -38 7 -55 16 -24 12 -36 14 -55 5 -16 -8 -30 -8 -43 -1 -10 5 -30 10 -44 10
-14 0 -26 3 -26 8 0 4 -15 13 -32 21 -88 36 -108 47 -108 58 0 6 -2 20 -5 30
-3 11 -1 9 6 -4 13 -25 29 -31 29 -11 0 6 7 3 15 -8 13 -16 16 -17 25 -4 8 13
10 13 10 -2 0 -9 14 -22 30 -30 17 -7 30 -16 30 -20 0 -10 30 -10 30 0 1 4 11
20 24 36 l24 28 65 -21 c62 -21 88 -43 66 -56 -5 -4 -7 -11 -3 -16 3 -5 10 -7
15 -3 5 3 16 0 24 -6 19 -16 19 -7 0 30 -13 26 -13 29 3 32 33 7 57 -3 69 -29
9 -19 10 -30 2 -40 -9 -10 -6 -13 17 -13 16 0 24 4 17 8 -18 12 -4 62 18 62
31 0 57 -21 51 -42 -2 -10 -8 -18 -13 -18 -5 0 -9 -4 -9 -10 0 -21 20 -9 35
20 17 34 52 52 83 43 14 -3 18 -11 15 -24 -4 -12 3 -29 17 -44 27 -28 40 -32
40 -10 0 8 -7 15 -15 15 -8 0 -15 7 -15 16 0 27 24 41 68 39 23 -1 45 2 48 6
10 17 25 9 35 -18 10 -26 12 -27 19 -8 4 11 5 27 3 35 -4 12 -3 13 5 1 5 -7
14 -11 18 -8 5 2 61 8 124 11 63 4 117 11 120 17 4 5 19 3 38 -7 32 -15 35
-34 6 -34 -8 0 -12 -4 -9 -10 3 -5 13 -10 21 -10 8 0 13 4 10 9 -3 5 12 11 34
15 22 3 40 10 40 14 0 15 -52 37 -77 34 -18 -3 -24 0 -21 10 3 7 25 16 49 20
46 6 74 19 124 54 17 12 54 32 83 45 28 13 52 27 52 31 0 5 6 8 14 8 7 0 33
17 57 39 24 21 55 42 68 46 15 4 19 10 12 14 -8 5 -6 12 6 23 38 32 45 32 29
-1 -9 -17 -12 -31 -6 -31 5 0 10 5 10 10 0 6 7 10 15 10 8 0 21 14 30 30 9 17
20 30 25 30 6 0 10 6 10 13 0 21 59 79 78 75 9 -2 18 -13 20 -26z m-1118 -31
c0 -16 -13 -19 -36 -9 -33 15 -30 25 6 20 17 -2 30 -8 30 -11z m270 9 c0 -5
-5 -10 -11 -10 -5 0 -7 5 -4 10 3 6 8 10 11 10 2 0 4 -4 4 -10z m90 -17 c0
-20 -3 -24 -11 -16 -7 7 -9 19 -6 27 10 24 17 19 17 -11z m-1115 -3 c3 -5 1
-10 -4 -10 -6 0 -11 5 -11 10 0 6 2 10 4 10 3 0 8 -4 11 -10z m575 -17 c-16
-11 -25 -12 -33 -4 -8 8 -5 11 11 11 12 0 22 5 22 11 0 5 5 7 11 4 6 -5 2 -13
-11 -22z m60 17 c0 -5 -7 -10 -16 -10 -8 0 -12 5 -9 10 3 6 10 10 16 10 5 0 9
-4 9 -10z m430 -10 c0 -14 -6 -20 -22 -19 -22 0 -22 1 -3 9 13 6 15 9 5 9 -13
1 -13 2 0 11 20 13 20 13 20 -10z m-187 3 c-13 -2 -33 -2 -45 0 -13 2 -3 4 22
4 25 0 35 -2 23 -4z m117 -12 c0 -4 -3 -11 -7 -14 -8 -9 -34 13 -28 24 6 9 35
1 35 -10z m-1030 -11 c0 -5 -4 -10 -10 -10 -5 0 -10 5 -10 10 0 6 5 10 10 10
6 0 10 -4 10 -10z m927 -22 c-3 -8 -6 -5 -6 6 -1 11 2 17 5 13 3 -3 4 -12 1
-19z m-1232 -8 c3 -11 12 -20 20 -20 7 0 15 -9 18 -19 2 -11 20 -27 38 -36 18
-10 40 -24 48 -32 12 -13 12 -16 0 -24 -20 -12 -29 -11 -29 4 0 6 -12 21 -26
32 -14 11 -33 29 -42 39 -9 11 -27 29 -39 41 -27 26 -29 35 -9 35 8 0 18 -9
21 -20z m1155 10 c0 -5 -4 -10 -9 -10 -6 0 -13 5 -16 10 -3 6 1 10 9 10 9 0
16 -4 16 -10z m176 -35 c1 -8 -2 -15 -7 -15 -5 0 -9 10 -9 22 0 23 12 17 16
-7z m-656 -55 c0 -5 -2 -10 -4 -10 -3 0 -8 5 -11 10 -3 6 -1 10 4 10 6 0 11
-4 11 -10z m-487 -79 c29 -15 34 -26 17 -36 -6 -4 -22 4 -35 17 -23 22 -34 44
-17 36 4 -2 19 -10 35 -17z m64 -45 c-3 -7 0 -19 6 -25 8 -8 8 -11 0 -11 -16
0 -36 28 -28 40 9 15 28 12 22 -4z m63 -61 c0 -9 -6 -12 -15 -9 -8 4 -12 10
-9 15 8 14 24 10 24 -6z m210 -15 c0 -5 -7 -7 -15 -4 -8 4 -15 1 -15 -5 0 -6
5 -11 10 -11 6 0 10 -8 10 -17 0 -13 -3 -14 -12 -5 -7 7 -20 12 -29 12 -32 0
-30 19 3 33 33 14 48 13 48 -3z"/>
<path d="M3900 3031 c0 -21 13 -41 26 -41 17 0 17 10 0 33 -14 19 -26 22 -26
8z"/>
<path d="M3935 2964 c-18 -14 -18 -14 2 -14 23 0 39 15 26 23 -5 3 -17 -1 -28
-9z"/>
<path d="M4082 2940 c0 -14 2 -19 5 -12 2 6 2 18 0 25 -3 6 -5 1 -5 -13z"/>
<path d="M4120 2951 c0 -5 7 -16 15 -25 8 -8 15 -25 15 -37 0 -12 3 -20 6 -16
12 11 -7 87 -22 87 -8 0 -14 -4 -14 -9z"/>
<path d="M3536 2914 c-9 -23 -8 -24 25 -24 24 0 30 3 25 16 -3 9 -6 18 -6 20
0 12 -39 2 -44 -12z"/>
<path d="M3870 2891 c0 -12 28 -22 35 -12 3 5 -2 12 -11 15 -21 8 -24 8 -24
-3z"/>
<path d="M3940 2890 c-11 -7 -5 -10 23 -10 21 0 37 -5 37 -12 0 -6 3 -8 7 -4
9 8 -24 36 -41 36 -6 0 -18 -5 -26 -10z"/>
<path d="M3272 2860 c-6 -11 -12 -29 -12 -40 0 -17 -4 -19 -26 -14 -20 5 -25
4 -19 -6 5 -7 18 -10 37 -6 20 4 27 2 22 -5 -5 -8 -2 -9 11 -2 12 7 18 23 19
52 1 44 -12 53 -32 21z"/>
<path d="M3692 2845 c-1 -19 3 -37 8 -40 11 -7 13 6 10 44 -1 18 2 22 13 18 9
-3 28 -2 44 3 24 7 21 8 -23 9 l-51 1 -1 -35z"/>
<path d="M3830 2861 c-6 -12 -8 -27 -4 -33 5 -8 11 -1 16 17 9 36 3 44 -12 16z"/>
<path d="M3347 2854 c-8 -8 3 -34 14 -34 5 0 9 9 9 20 0 19 -11 26 -23 14z"/>
<path d="M3420 2840 c0 -11 5 -20 10 -20 6 0 10 9 10 20 0 11 -4 20 -10 20 -5
0 -10 -9 -10 -20z"/>
<path d="M4105 2850 c-3 -5 3 -10 14 -10 12 0 21 -7 21 -15 0 -8 -5 -15 -12
-15 -6 0 -9 -2 -6 -5 8 -8 38 6 38 17 0 12 -26 38 -39 38 -5 0 -13 -4 -16 -10z"/>
<path d="M3660 2840 c-12 -7 -12 -12 -3 -21 15 -15 26 -7 21 15 -2 11 -7 13
-18 6z"/>
<path d="M3780 2835 c0 -16 16 -20 24 -6 3 5 -1 11 -9 15 -9 3 -15 0 -15 -9z"/>
<path d="M3573 2833 c41 -7 32 -23 -13 -23 -22 0 -40 -5 -40 -11 0 -13 78 -2
98 14 11 9 11 12 -5 18 -10 4 -29 7 -43 7 -23 -1 -23 -1 3 -5z"/>
<path d="M3468 2793 c6 -2 18 -2 25 0 6 3 1 5 -13 5 -14 0 -19 -2 -12 -5z"/>
<path d="M3642 2788 c7 -19 38 -22 38 -4 0 10 -9 16 -21 16 -12 0 -19 -5 -17
-12z"/>
<path d="M3760 2789 c0 -5 5 -7 10 -4 6 3 10 8 10 11 0 2 -4 4 -10 4 -5 0 -10
-5 -10 -11z"/>
<path d="M3928 2793 c7 -3 16 -2 19 1 4 3 -2 6 -13 5 -11 0 -14 -3 -6 -6z"/>
<path d="M3440 2774 c0 -8 5 -12 10 -9 6 4 8 11 5 16 -9 14 -15 11 -15 -7z"/>
<path d="M3266 2743 c-6 -6 23 -32 36 -33 4 0 5 6 2 14 -6 16 -29 28 -38 19z"/>
<path d="M3550 2729 c0 -5 11 -9 25 -9 14 0 25 2 25 4 0 2 -11 6 -25 8 -14 3
-25 1 -25 -3z"/>
<path d="M3760 2730 c0 -5 5 -10 11 -10 5 0 7 5 4 10 -3 6 -8 10 -11 10 -2 0
-4 -4 -4 -10z"/>
<path d="M3680 2650 c0 -5 5 -10 11 -10 5 0 7 5 4 10 -3 6 -8 10 -11 10 -2 0
-4 -4 -4 -10z"/>
<path d="M4410 2290 c0 -5 4 -10 9 -10 6 0 13 5 16 10 3 6 -1 10 -9 10 -9 0
-16 -4 -16 -10z"/>
<path d="M4268 2278 c9 -9 15 -9 24 0 9 9 7 12 -12 12 -19 0 -21 -3 -12 -12z"/>
<path d="M4283 2250 c-32 -13 -29 -22 3 -10 32 13 37 12 29 0 -3 -5 -1 -10 5
-10 13 0 8 23 -6 26 -5 2 -19 -1 -31 -6z"/>
<path d="M4184 2195 c-15 -11 -16 -14 -4 -15 21 0 44 16 33 23 -6 4 -19 0 -29
-8z"/>
<path d="M3120 2170 c0 -5 4 -10 9 -10 6 0 13 5 16 10 3 6 -1 10 -9 10 -9 0
-16 -4 -16 -10z"/>
<path d="M4020 2170 c0 -5 5 -10 11 -10 5 0 7 5 4 10 -3 6 -8 10 -11 10 -2 0
-4 -4 -4 -10z"/>
<path d="M3870 2160 c0 -5 7 -7 15 -4 8 4 15 8 15 10 0 2 -7 4 -15 4 -8 0 -15
-4 -15 -10z"/>
<path d="M3065 2150 c4 -6 11 -8 16 -5 14 9 11 15 -7 15 -8 0 -12 -5 -9 -10z"/>
<path d="M3178 2153 c7 -3 16 -2 19 1 4 3 -2 6 -13 5 -11 0 -14 -3 -6 -6z"/>
<path d="M3830 2109 c0 -5 11 -9 25 -9 14 0 25 2 25 4 0 2 -11 6 -25 8 -14 3
-25 1 -25 -3z"/>
<path d="M3905 2110 c-3 -5 -1 -10 4 -10 6 0 11 5 11 10 0 6 -2 10 -4 10 -3 0
-8 -4 -11 -10z"/>
<path d="M3470 2101 c0 -6 5 -13 10 -16 6 -3 10 1 10 9 0 9 -4 16 -10 16 -5 0
-10 -4 -10 -9z"/>
<path d="M3511 2083 c0 -10 3 -13 5 -6 3 7 11 10 19 7 7 -3 16 -1 20 5 4 7 -4
11 -19 11 -18 0 -26 -5 -25 -17z"/>
<path d="M3655 2089 c-19 -7 -19 -8 3 -8 12 -1 22 -6 22 -13 0 -6 3 -9 6 -5
13 13 -11 34 -31 26z"/>
<path d="M3710 2086 c0 -9 5 -16 10 -16 6 0 10 4 10 9 0 6 -4 13 -10 16 -5 3
-10 -1 -10 -9z"/>
<path d="M3780 2090 c0 -5 5 -10 10 -10 6 0 10 5 10 10 0 6 -4 10 -10 10 -5 0
-10 -4 -10 -10z"/>
<path d="M5210 4250 c0 -5 5 -10 10 -10 6 0 10 5 10 10 0 6 -4 10 -10 10 -5 0
-10 -4 -10 -10z"/>
<path d="M5240 4170 c0 -5 9 -10 20 -10 11 0 20 5 20 10 0 6 -9 10 -20 10 -11
0 -20 -4 -20 -10z"/>
<path d="M1720 3260 c0 -5 7 -10 15 -10 8 0 15 5 15 10 0 6 -7 10 -15 10 -8 0
-15 -4 -15 -10z"/>
<path d="M2001 3114 c0 -11 3 -14 6 -6 3 7 2 16 -1 19 -3 4 -6 -2 -5 -13z"/>
<path d="M1808 3113 c7 -3 16 -2 19 1 4 3 -2 6 -13 5 -11 0 -14 -3 -6 -6z"/>
<path d="M2010 3075 c0 -8 5 -15 10 -15 6 0 10 7 10 15 0 8 -4 15 -10 15 -5 0
-10 -7 -10 -15z"/>
<path d="M5418 3033 c7 -3 16 -2 19 1 4 3 -2 6 -13 5 -11 0 -14 -3 -6 -6z"/>
<path d="M1714 3017 c-4 -10 -2 -23 3 -28 14 -14 24 13 13 32 -7 11 -10 10
-16 -4z"/>
<path d="M5441 3004 c0 -11 3 -14 6 -6 3 7 2 16 -1 19 -3 4 -6 -2 -5 -13z"/>
<path d="M1810 3006 c0 -2 7 -6 15 -10 8 -3 15 -1 15 4 0 6 -7 10 -15 10 -8 0
-15 -2 -15 -4z"/>
<path d="M5415 3000 c3 -5 8 -10 11 -10 2 0 4 5 4 10 0 6 -5 10 -11 10 -5 0
-7 -4 -4 -10z"/>
<path d="M5500 2990 c0 -5 5 -10 10 -10 6 0 10 5 10 10 0 6 -4 10 -10 10 -5 0
-10 -4 -10 -10z"/>
<path d="M1845 2970 c-3 -5 -1 -10 4 -10 6 0 11 5 11 10 0 6 -2 10 -4 10 -3 0
-8 -4 -11 -10z"/>
<path d="M5420 2956 c0 -20 13 -27 30 -15 13 8 13 10 0 19 -21 14 -30 12 -30
-4z"/>
<path d="M1795 2950 c3 -5 8 -10 11 -10 2 0 4 5 4 10 0 6 -5 10 -11 10 -5 0
-7 -4 -4 -10z"/>
<path d="M1875 2930 c3 -5 8 -10 11 -10 2 0 4 5 4 10 0 6 -5 10 -11 10 -5 0
-7 -4 -4 -10z"/>
<path d="M1740 2926 c0 -2 7 -9 15 -16 13 -11 14 -10 9 4 -5 14 -24 23 -24 12z"/>
<path d="M5470 2916 c0 -9 5 -16 10 -16 6 0 10 4 10 9 0 6 -4 13 -10 16 -5 3
-10 -1 -10 -9z"/>
<path d="M5404 2902 c4 -13 -1 -23 -19 -32 -14 -7 -25 -22 -25 -32 0 -21 20
-24 38 -6 7 7 12 8 12 2 0 -6 16 -8 35 -6 23 3 35 9 35 19 0 12 -8 14 -35 9
-27 -5 -35 -4 -35 8 0 8 5 16 12 18 14 5 3 38 -12 38 -6 0 -9 -8 -6 -18z"/>
<path d="M1860 2890 c0 -5 7 -10 16 -10 8 0 12 5 9 10 -3 6 -10 10 -16 10 -5
0 -9 -4 -9 -10z"/>
<path d="M1915 2851 c-7 -23 4 -71 16 -71 5 0 9 -7 9 -15 0 -8 -4 -15 -10 -15
-5 0 -10 -7 -10 -15 0 -8 8 -15 19 -15 26 0 35 39 14 62 -10 11 -12 18 -5 18
7 0 12 4 12 10 0 5 -7 7 -16 3 -14 -5 -15 -1 -9 25 7 35 -9 45 -20 13z"/>
<path d="M2100 2856 c0 -9 5 -16 10 -16 6 0 10 4 10 9 0 6 -4 13 -10 16 -5 3
-10 -1 -10 -9z"/>
<path d="M5534 2846 c-8 -22 3 -33 18 -18 9 9 9 15 0 24 -9 9 -13 7 -18 -6z"/>
<path d="M1790 2825 c0 -8 5 -15 10 -15 6 0 10 7 10 15 0 8 -4 15 -10 15 -5 0
-10 -7 -10 -15z"/>
<path d="M1836 2815 c-3 -9 0 -15 9 -15 9 0 12 6 9 15 -4 8 -7 15 -9 15 -2 0
-5 -7 -9 -15z"/>
<path d="M1761 2804 c0 -11 3 -14 6 -6 3 7 2 16 -1 19 -3 4 -6 -2 -5 -13z"/>
<path d="M5329 2813 c-1 -5 -1 -12 0 -17 1 -4 -4 -14 -10 -22 -9 -11 -7 -14 8
-14 15 0 20 7 21 30 0 17 -4 30 -9 30 -5 0 -10 -3 -10 -7z"/>
<path d="M5390 2785 c12 -15 30 -12 30 6 0 5 -10 9 -21 9 -18 0 -19 -2 -9 -15z"/>
<path d="M1835 2760 c3 -5 11 -10 16 -10 6 0 7 5 4 10 -3 6 -11 10 -16 10 -6
0 -7 -4 -4 -10z"/>
<path d="M5480 2760 c0 -5 5 -10 10 -10 6 0 10 5 10 10 0 6 -4 10 -10 10 -5 0
-10 -4 -10 -10z"/>
<path d="M5360 2749 c0 -5 -12 -9 -27 -7 -16 2 -29 -1 -30 -7 -1 -5 5 -9 13
-7 16 3 19 -14 4 -23 -5 -3 -10 -15 -10 -26 0 -10 -7 -19 -15 -19 -8 0 -15 8
-15 18 0 11 -8 6 -22 -17 -16 -24 -19 -36 -10 -39 7 -2 12 -13 12 -24 0 -15
-5 -18 -20 -13 -14 5 -20 2 -20 -9 0 -9 -4 -16 -10 -16 -5 0 -10 -7 -10 -15 0
-8 -4 -15 -10 -15 -5 0 -10 -7 -10 -16 0 -13 -3 -14 -14 -5 -9 8 -16 8 -20 2
-4 -5 -1 -13 5 -16 7 -5 -5 -21 -30 -44 -40 -36 -53 -73 -31 -86 13 -8 3 -25
-16 -25 -8 0 -14 9 -14 20 0 28 -21 24 -48 -11 -19 -23 -20 -29 -8 -29 9 0 16
-5 16 -11 0 -6 -9 -8 -20 -4 -15 5 -30 -3 -56 -29 -20 -20 -40 -36 -45 -36 -5
0 -25 -18 -45 -40 -20 -22 -40 -40 -45 -40 -4 0 -22 -13 -40 -29 -18 -17 -45
-35 -61 -42 -15 -6 -28 -15 -28 -20 0 -5 -9 -9 -20 -9 -11 0 -20 -4 -20 -9 0
-5 -26 -23 -57 -39 -32 -16 -92 -47 -134 -69 -41 -22 -91 -43 -110 -47 -19 -3
-47 -13 -64 -22 -16 -9 -37 -17 -45 -18 -8 -1 -22 -5 -30 -8 -184 -66 -504
-99 -720 -75 -80 9 -278 46 -298 56 -9 4 -69 25 -132 46 -63 20 -142 49 -175
65 -33 15 -70 31 -82 34 -13 4 -23 11 -23 16 0 4 -10 10 -22 14 -13 3 -45 20
-73 38 -27 18 -83 53 -122 78 -40 25 -73 48 -73 52 0 5 -7 8 -15 8 -8 0 -15 7
-15 15 0 8 -11 17 -25 21 -14 3 -25 9 -25 13 0 17 -80 91 -105 97 -18 4 -31
17 -37 36 -6 16 -13 27 -16 24 -7 -8 -33 14 -27 24 2 4 -11 22 -30 40 -19 19
-35 40 -35 46 0 7 -6 17 -12 21 -14 9 -32 34 -50 73 -7 14 -13 26 -14 28 0 1
-13 -4 -28 -12 -39 -20 -65 -51 -56 -66 6 -10 8 -10 12 1 2 7 9 9 15 6 12 -8
6 -47 -7 -47 -5 0 -12 -9 -15 -21 -4 -13 -12 -18 -22 -15 -18 7 -42 -20 -43
-49 l-1 -20 -10 20 c-9 20 -9 20 -6 0 3 -24 37 -34 37 -11 0 9 5 16 11 16 6 0
9 -6 6 -14 -5 -11 11 -26 27 -26 2 0 3 14 3 30 0 41 21 78 47 82 13 2 22 12
24 26 2 12 7 20 12 17 5 -3 7 -12 3 -20 -3 -9 1 -15 10 -15 9 0 18 -4 21 -9 3
-5 -10 -9 -30 -9 -42 0 -56 -15 -51 -54 3 -22 1 -25 -10 -16 -7 6 -16 8 -19 5
-7 -7 32 -47 46 -47 6 0 10 -11 10 -25 0 -22 4 -25 35 -25 33 0 35 -2 35 -32
0 -51 -11 -79 -28 -76 -21 4 -28 28 -8 28 17 0 20 23 6 55 -9 20 -9 20 -9 0
-1 -18 -6 -20 -36 -17 -22 3 -35 0 -35 -7 0 -7 9 -9 24 -5 27 6 46 -14 25 -27
-11 -6 -11 -11 -1 -21 6 -6 12 -19 12 -28 0 -9 8 -17 18 -17 85 1 111 -4 106
-18 -4 -9 0 -15 9 -15 8 0 18 6 20 13 3 7 6 4 6 -7 1 -11 6 -16 14 -13 23 9
57 -25 51 -50 -4 -13 -10 -23 -15 -23 -5 0 -9 -9 -9 -19 0 -11 -6 -21 -12 -24
-7 -2 -9 -8 -5 -13 5 -5 26 10 48 34 33 35 46 42 77 41 l37 0 -35 -12 c-43
-15 -80 -78 -60 -103 7 -8 11 -16 9 -17 -2 -1 -16 -9 -31 -17 -16 -7 -28 -18
-28 -23 0 -5 7 -4 15 3 19 16 37 3 30 -21 -4 -11 -2 -19 5 -19 6 0 8 -10 5
-22 -6 -26 30 -92 45 -83 15 9 12 32 -5 39 -19 7 -20 36 -1 36 21 0 38 -27 31
-50 -5 -16 -2 -20 15 -20 12 0 18 -5 15 -10 -4 -6 5 -10 19 -10 23 0 26 4 26
35 0 28 -3 33 -17 28 -17 -6 -17 -5 -2 13 9 10 14 26 11 34 -2 8 -2 12 2 8 4
-3 9 -18 10 -32 4 -29 32 -76 46 -76 5 0 1 16 -11 36 -11 20 -18 39 -15 41 10
10 38 -7 43 -27 3 -11 9 -17 14 -14 5 3 6 -2 3 -11 -7 -17 25 -50 57 -60 12
-4 19 -16 19 -32 l0 -25 -37 32 c-36 32 -60 27 -33 -5 11 -13 5 -15 -36 -17
-44 -1 -45 -2 -11 -5 25 -3 37 -9 37 -20 0 -13 3 -13 16 -2 13 11 17 10 25 -4
6 -9 17 -17 24 -17 10 0 15 -10 15 -29 0 -33 17 -43 61 -34 27 5 31 3 27 -13
-2 -13 -10 -18 -24 -16 -24 3 -57 -29 -36 -35 6 -3 12 -11 12 -19 0 -8 7 -14
15 -14 8 0 15 7 15 15 0 8 -7 15 -15 15 -8 0 -15 5 -15 10 0 6 7 10 15 10 8 0
15 -5 15 -10 0 -6 10 -2 22 10 22 21 38 26 38 12 0 -4 -10 -12 -22 -17 -12 -6
-24 -17 -26 -25 -5 -13 -3 -13 11 -1 22 17 47 7 47 -19 0 -19 -4 -21 -30 -15
-19 4 -30 3 -30 -4 0 -13 8 -14 70 -13 25 0 37 -2 28 -4 -26 -8 -22 -23 9 -30
17 -5 28 -3 31 4 8 25 22 10 33 -33 13 -50 35 -63 24 -15 -5 23 -3 30 9 30 15
0 21 -16 18 -52 -2 -20 3 -21 33 -9 11 5 31 4 43 0 18 -7 23 -6 20 3 -3 7 -22
16 -44 19 -21 3 -34 7 -27 8 6 0 13 11 15 24 4 27 23 24 22 -3 0 -11 6 -20 13
-20 8 0 21 -7 30 -15 8 -9 28 -19 44 -22 16 -3 29 -12 29 -20 0 -12 8 -13 40
-8 39 7 46 2 41 -27 0 -5 12 -8 28 -8 17 0 33 -5 36 -10 4 -6 11 -8 16 -5 5 4
9 -1 9 -10 0 -11 7 -15 23 -13 14 2 21 9 21 21 -1 9 4 17 12 17 8 0 14 5 14
10 0 6 -5 10 -11 10 -5 0 -7 5 -4 10 7 12 35 -12 35 -30 0 -8 10 -9 29 -5 19
4 34 1 42 -8 12 -12 15 -12 25 1 14 19 34 8 28 -16 -2 -9 3 -25 10 -36 14 -17
17 -17 47 -2 39 20 39 20 39 1 0 -11 11 -15 40 -15 39 0 40 1 34 27 -7 26 -6
27 9 11 9 -9 17 -26 17 -37 0 -11 9 -25 20 -31 22 -12 27 -1 9 17 -6 6 -8 17
-4 23 6 9 10 8 17 -4 8 -14 13 -15 24 -5 8 6 14 20 14 30 0 20 35 44 50 34 17
-11 11 -32 -11 -38 -20 -5 -18 -27 2 -27 6 0 7 4 4 10 -3 5 -1 10 4 10 6 0 11
-5 11 -12 0 -11 15 -2 15 10 2 23 18 52 29 52 7 0 25 9 39 20 31 25 48 8 21
-21 -20 -23 -14 -33 15 -24 14 4 21 15 21 30 0 13 5 27 10 30 6 3 10 -1 10 -9
0 -9 8 -16 19 -16 11 0 22 -10 26 -23 4 -14 8 -18 12 -9 3 8 0 19 -6 25 -18
18 -13 29 11 25 16 -2 24 3 26 16 3 11 0 16 -7 12 -11 -7 -15 6 -5 17 14 13
34 -7 34 -34 0 -22 5 -29 19 -29 11 0 23 -5 27 -11 4 -8 12 -2 21 15 8 15 11
31 7 34 -4 4 -9 1 -11 -5 -8 -22 -32 -14 -48 17 -23 45 -18 58 10 20 15 -21
25 -28 25 -18 0 21 28 31 32 11 2 -12 8 -11 32 8 23 18 32 20 47 11 10 -7 26
-12 34 -12 18 0 21 20 3 20 -8 0 -6 5 4 10 18 11 78 2 78 -12 0 -5 9 -4 21 2
15 8 24 8 34 0 9 -7 15 -8 20 0 3 5 0 10 -8 10 -13 0 -27 20 -27 37 0 10 64
-7 71 -19 8 -13 39 -4 39 12 0 5 -8 10 -19 10 -10 0 -21 9 -24 20 -3 13 0 20
9 20 8 0 14 9 14 21 0 14 5 19 18 17 9 -2 17 -11 17 -21 0 -20 29 -41 47 -35
22 8 16 36 -10 47 -23 11 -24 13 -10 28 15 14 19 14 49 -1 42 -21 52 -20 67 4
10 17 10 21 -3 26 -9 4 -23 0 -33 -9 -20 -18 -35 -7 -46 36 -4 19 -3 27 7 27
20 0 77 -30 77 -41 0 -5 5 -9 10 -9 6 0 10 9 10 21 0 11 5 17 10 14 7 -4 7
-12 0 -25 -13 -23 -14 -52 -2 -32 5 7 15 10 24 7 12 -5 13 1 4 40 -8 34 -15
45 -31 46 -20 1 -20 1 0 6 11 2 33 9 49 15 27 11 28 14 23 60 -4 30 -2 46 3
43 6 -4 10 -21 10 -40 0 -36 14 -53 26 -34 4 7 7 27 6 46 -1 23 3 33 13 33 8
0 15 6 15 13 0 9 2 9 8 0 10 -16 62 -5 56 12 -3 7 3 15 13 17 10 3 -1 6 -24 9
-31 3 -43 1 -43 -8 0 -7 -4 -13 -10 -13 -5 0 -10 4 -10 9 0 5 -9 11 -20 14
-11 3 -20 12 -20 21 0 19 14 21 32 4 8 -8 45 -13 101 -14 77 0 87 2 87 18 0
11 -5 15 -15 12 -13 -5 -45 16 -45 30 0 12 38 6 43 -6 2 -7 7 -10 11 -7 12 11
-15 57 -38 64 -21 7 -21 8 2 12 13 3 38 -2 55 -10 38 -18 91 -12 83 10 -3 8
-6 15 -6 16 0 1 -20 1 -43 -1 -31 -3 -49 1 -60 13 -22 21 -21 28 4 56 13 16
19 18 16 7 -5 -13 3 -17 39 -20 24 -2 44 0 44 4 0 5 -10 8 -22 8 -16 0 -19 3
-11 11 8 8 17 8 31 0 11 -6 29 -11 39 -11 14 1 13 5 -9 21 -16 11 -28 25 -28
30 0 16 42 10 55 -8 11 -14 13 -13 17 13 4 28 2 29 -29 26 -20 -3 -33 0 -33 7
0 6 14 11 30 11 23 0 30 4 30 20 0 10 -6 25 -13 32 -12 10 -10 15 11 25 13 7
38 14 56 14 17 1 23 3 13 6 -10 2 -16 12 -15 20 2 9 -3 18 -9 20 -7 3 -13 -2
-13 -11 0 -18 -42 -16 -48 2 -2 7 -10 12 -18 12 -21 0 -17 21 5 27 11 3 22 12
24 22 4 14 5 14 6 -1 1 -12 9 -18 27 -18 14 0 23 -4 20 -8 -3 -5 4 -16 15 -25
18 -16 19 -16 19 7 0 14 6 27 13 30 10 5 10 7 0 12 -7 3 -13 12 -13 20 0 8 -5
14 -11 14 -6 0 -9 5 -7 11 2 6 7 10 12 9 19 -4 23 25 7 54 -17 30 -61 49 -61
27 0 -6 -4 -11 -9 -11 -5 0 -9 16 -8 35 1 23 4 32 11 25 5 -5 18 -10 28 -10 9
0 21 -7 26 -16 5 -8 28 -18 52 -21 43 -6 43 -6 36 21 -9 35 0 49 23 37 9 -5
23 -6 30 -1 10 6 6 12 -18 24 -27 15 -31 15 -31 1 0 -11 -11 -15 -40 -15 -32
0 -40 4 -40 19 0 20 34 31 97 31 31 0 34 2 28 23 -4 12 -13 27 -21 33 -8 6
-14 19 -14 28 0 23 27 20 35 -5 8 -23 19 -16 30 19 6 21 4 23 -15 17 -34 -11
-58 18 -55 65 2 22 1 40 -1 40 -2 0 -4 -5 -4 -11z m-47 -189 c7 0 4 -5 -6 -11
-10 -6 -20 -9 -21 -7 -1 1 0 26 3 53 l6 50 3 -42 c2 -25 8 -43 15 -43z m37 68
c0 -7 -5 -20 -10 -28 -8 -12 -10 -9 -10 13 0 15 5 27 10 27 6 0 10 -6 10 -12z
m-50 -168 c0 -11 -4 -20 -9 -20 -5 0 -11 9 -14 20 -3 13 0 20 9 20 8 0 14 -9
14 -20z m-3138 -8 c5 -5 1 -9 -9 -9 -48 1 -73 -4 -73 -13 0 -6 8 -14 18 -17 9
-4 21 -12 25 -20 4 -7 15 -13 22 -13 8 0 15 -7 15 -15 0 -8 -9 -15 -19 -15
-11 0 -23 -5 -27 -12 -11 -17 -34 20 -34 54 0 15 -4 28 -10 28 -10 0 -14 33
-5 42 8 8 87 0 97 -10z m3073 -77 c25 -21 28 -26 15 -35 -25 -16 -40 -11 -40
13 0 13 -5 28 -12 35 -22 22 7 12 37 -13z m-70 -14 c7 -12 -12 -24 -25 -16
-11 7 -4 25 10 25 5 0 11 -4 15 -9z m-77 -60 c3 -8 -1 -12 -9 -9 -7 2 -15 10
-17 17 -3 8 1 12 9 9 7 -2 15 -10 17 -17z m66 4 c-4 -8 -8 -15 -10 -15 -2 0
-4 7 -4 15 0 8 4 15 10 15 5 0 7 -7 4 -15z m-2944 -14 c0 -9 -24 -21 -41 -21
-5 0 -9 7 -9 15 0 9 9 15 25 15 14 0 25 -4 25 -9z m110 -23 c0 -5 -6 -8 -14
-8 -8 0 -16 -6 -19 -12 -3 -9 -10 -7 -21 7 -12 14 -19 16 -22 8 -3 -7 -12 -13
-20 -13 -14 0 -19 12 -8 22 8 9 104 4 104 -4z m-152 -32 c-7 -8 -15 -12 -17
-11 -5 6 10 25 20 25 5 0 4 -6 -3 -14z m2892 -11 c0 -8 -4 -15 -10 -15 -5 0
-10 7 -10 15 0 8 5 15 10 15 6 0 10 -7 10 -15z m-2825 -5 c3 -5 -6 -12 -20
-16 -29 -7 -41 -1 -30 15 8 14 42 14 50 1z m135 -30 c0 -5 -4 -10 -10 -10 -5
0 -10 5 -10 10 0 6 5 10 10 10 6 0 10 -4 10 -10z m2727 -36 c-3 -3 -12 -4 -19
-1 -8 3 -5 6 6 6 11 1 17 -2 13 -5z m55 -6 c-9 -9 -15 -9 -24 0 -9 9 -7 12 12
12 19 0 21 -3 12 -12z m-212 -8 c0 -5 -5 -10 -11 -10 -5 0 -7 5 -4 10 3 6 8
10 11 10 2 0 4 -4 4 -10z m-2600 -9 c0 -6 -4 -13 -10 -16 -5 -3 -10 1 -10 9 0
9 5 16 10 16 6 0 10 -4 10 -9z m2700 -6 c0 -8 -7 -15 -15 -15 -26 0 -18 20 13
29 1 1 2 -6 2 -14z m55 -35 c3 -6 -4 -10 -17 -10 -18 0 -20 2 -8 10 19 12 18
12 25 0z m-5 -54 c0 -3 -4 -8 -10 -11 -5 -3 -10 -1 -10 4 0 6 5 11 10 11 6 0
10 -2 10 -4z m-2643 -32 c-3 -3 -12 -4 -19 -1 -8 3 -5 6 6 6 11 1 17 -2 13 -5z
m-47 -14 c0 -5 -2 -10 -4 -10 -3 0 -8 5 -11 10 -3 6 -1 10 4 10 6 0 11 -4 11
-10z m-12 -28 c2 -7 -6 -12 -17 -12 -21 0 -27 11 -14 24 9 9 26 2 31 -12z m32
4 c0 -3 -4 -8 -10 -11 -5 -3 -10 -1 -10 4 0 6 5 11 10 11 6 0 10 -2 10 -4z
m-4 -61 c-6 -13 -18 -20 -30 -19 -12 1 -25 3 -30 3 -4 1 -6 7 -3 15 3 8 1 16
-4 18 -5 2 10 3 34 4 41 0 43 -1 33 -21z m49 -5 c3 -5 1 -10 -4 -10 -6 0 -11
5 -11 10 0 6 2 10 4 10 3 0 8 -4 11 -10z m-85 -34 c0 -3 -4 -8 -10 -11 -5 -3
-10 -1 -10 4 0 6 5 11 10 11 6 0 10 -2 10 -4z m55 -26 c3 -5 2 -10 -4 -10 -5
0 -13 5 -16 10 -3 6 -2 10 4 10 5 0 13 -4 16 -10z m205 -10 c0 -5 -2 -10 -4
-10 -3 0 -8 5 -11 10 -3 6 -1 10 4 10 6 0 11 -4 11 -10z m2300 0 c12 -8 9 -10
-13 -10 -16 0 -26 4 -22 10 8 12 16 12 35 0z m-2291 -76 c-17 -21 -29 -17 -29
11 0 23 2 24 21 15 16 -9 18 -14 8 -26z m71 -54 c0 -5 -2 -10 -4 -10 -3 0 -8
5 -11 10 -3 6 -1 10 4 10 6 0 11 -4 11 -10z m-33 -16 c-3 -3 -12 -4 -19 -1 -8
3 -5 6 6 6 11 1 17 -2 13 -5z m2023 -4 c-8 -5 -19 -10 -25 -10 -5 0 -3 5 5 10
8 5 20 10 25 10 6 0 3 -5 -5 -10z m-66 -34 c-6 -15 -24 -23 -24 -11 0 8 24 34
28 30 1 -1 0 -10 -4 -19z m-1931 -21 c10 -14 13 -25 8 -25 -5 0 -13 5 -16 10
-3 6 -15 10 -26 10 -10 0 -19 7 -19 15 0 23 33 17 53 -10z m2022 15 c3 -5 1
-10 -4 -10 -6 0 -11 5 -11 10 0 6 2 10 4 10 3 0 8 -4 11 -10z m-50 -20 c-3 -5
-10 -10 -16 -10 -5 0 -9 5 -9 10 0 6 7 10 16 10 8 0 12 -4 9 -10z m-105 -70
c0 -5 -4 -12 -10 -15 -5 -3 -10 -4 -10 -1 0 2 -3 12 -6 20 -5 12 -2 15 10 10
9 -3 16 -10 16 -14z m-20 -50 c0 -5 -5 -10 -11 -10 -5 0 -7 5 -4 10 3 6 8 10
11 10 2 0 4 -4 4 -10z m-83 -66 c-3 -3 -12 -4 -19 -1 -8 3 -5 6 6 6 11 1 17
-2 13 -5z m-227 -18 c0 -3 -4 -8 -10 -11 -5 -3 -10 -1 -10 4 0 6 5 11 10 11 6
0 10 -2 10 -4z m70 -35 c0 -11 -30 -19 -48 -14 -6 3 -10 9 -6 14 7 12 54 12
54 0z m90 -6 c13 -16 3 -20 -24 -9 -9 3 -13 10 -10 15 8 13 20 11 34 -6z
m-1225 -45 c3 -5 -1 -10 -9 -10 -9 0 -16 5 -16 10 0 6 4 10 9 10 6 0 13 -4 16
-10z m775 0 c0 -5 -4 -10 -10 -10 -5 0 -10 5 -10 10 0 6 5 10 10 10 6 0 10 -4
10 -10z m-123 -46 c-3 -3 -12 -4 -19 -1 -8 3 -5 6 6 6 11 1 17 -2 13 -5z m-80
-51 c-3 -3 -11 -2 -17 2 -9 6 -9 10 1 16 14 8 27 -7 16 -18z m-179 5 c-5 -14
-58 -30 -58 -18 0 11 30 29 48 30 8 0 12 -5 10 -12z m48 -35 c-10 -10 -19 5
-10 18 6 11 8 11 12 0 2 -7 1 -15 -2 -18z"/>
<path d="M1880 2730 c-13 -8 -12 -10 3 -10 9 0 17 5 17 10 0 12 -1 12 -20 0z"/>
<path d="M5396 2731 c-3 -5 8 -14 24 -20 31 -10 39 -4 18 17 -14 14 -35 16
-42 3z"/>
<path d="M1972 2686 c2 -25 9 -48 16 -51 6 -2 12 -11 12 -20 0 -15 6 -13 49
13 7 4 -22 52 -31 52 -5 0 -4 -8 1 -19 10 -18 6 -31 -12 -31 -5 0 -7 21 -5 47
2 39 0 48 -15 51 -15 3 -18 -3 -15 -42z"/>
<path d="M1860 2661 c0 -12 5 -21 10 -21 6 0 10 5 10 11 0 6 9 8 20 4 11 -4
20 -2 20 4 0 6 -6 11 -14 11 -8 0 -21 3 -30 6 -12 4 -16 0 -16 -15z"/>
<path d="M1825 2630 c3 -5 8 -10 11 -10 2 0 4 5 4 10 0 6 -5 10 -11 10 -5 0
-7 -4 -4 -10z"/>
<path d="M1905 2630 c3 -5 8 -10 11 -10 2 0 4 5 4 10 0 6 -5 10 -11 10 -5 0
-7 -4 -4 -10z"/>
<path d="M5510 2625 c-7 -8 -9 -15 -6 -15 4 0 14 7 22 15 9 8 11 15 6 15 -5 0
-15 -7 -22 -15z"/>
<path d="M1940 2600 c0 -13 7 -20 20 -20 24 0 27 25 4 34 -23 9 -24 8 -24 -14z"/>
<path d="M5432 2580 c0 -14 2 -19 5 -12 2 6 2 18 0 25 -3 6 -5 1 -5 -13z"/>
<path d="M1787 2575 c-5 -11 0 -15 19 -15 16 0 24 5 22 13 -7 18 -35 20 -41 2z"/>
<path d="M1940 2540 c0 -11 -4 -20 -10 -20 -5 0 -10 8 -10 17 0 13 -3 14 -12
5 -8 -8 -8 -15 2 -27 12 -14 11 -18 -1 -26 -8 -5 -9 -9 -2 -9 6 0 14 -8 16
-17 3 -12 5 -9 6 8 0 14 5 29 10 35 15 16 23 54 12 54 -6 0 -11 -9 -11 -20z"/>
<path d="M1830 2540 c0 -5 5 -10 11 -10 5 0 7 5 4 10 -3 6 -8 10 -11 10 -2 0
-4 -4 -4 -10z"/>
<path d="M1880 2510 c0 -5 5 -10 10 -10 6 0 10 5 10 10 0 6 -4 10 -10 10 -5 0
-10 -4 -10 -10z"/>
<path d="M1960 2506 c0 -8 5 -18 10 -21 6 -3 10 1 10 9 0 8 -4 18 -10 21 -5 3
-10 -1 -10 -9z"/>
<path d="M1711 2487 c10 -9 59 -17 59 -9 0 4 -14 9 -32 10 -18 2 -30 1 -27 -1z"/>
<path d="M1832 2481 c-8 -5 1 -8 25 -9 29 0 33 2 18 8 -26 11 -28 11 -43 1z"/>
<path d="M5436 2465 c4 -8 15 -15 26 -15 17 0 18 3 8 15 -7 8 -19 15 -26 15
-8 0 -11 -6 -8 -15z"/>
<path d="M5505 2470 c-3 -5 -1 -10 4 -10 6 0 11 5 11 10 0 6 -2 10 -4 10 -3 0
-8 -4 -11 -10z"/>
<path d="M5372 2429 c2 -6 8 -10 13 -10 5 0 11 4 13 10 2 6 -4 11 -13 11 -9 0
-15 -5 -13 -11z"/>
<path d="M1823 2415 c-16 -17 -5 -25 20 -16 16 6 16 9 5 18 -9 8 -16 7 -25 -2z"/>
<path d="M5403 2393 c9 -2 23 -2 30 0 6 3 -1 5 -18 5 -16 0 -22 -2 -12 -5z"/>
<path d="M2000 2359 c0 -8 -9 -23 -21 -32 -11 -10 -18 -21 -14 -25 3 -3 10 0
16 8 8 13 10 13 18 1 8 -12 11 -9 17 13 4 16 2 32 -5 39 -8 8 -11 7 -11 -4z"/>
<path d="M5353 2357 c5 -15 37 -22 37 -9 0 5 -9 12 -21 15 -13 3 -19 1 -16 -6z"/>
<path d="M1705 2330 c-4 -6 3 -10 14 -10 25 0 27 6 6 13 -8 4 -17 2 -20 -3z"/>
<path d="M1920 2315 c0 -8 -5 -15 -12 -15 -9 0 -9 -3 -1 -11 18 -18 42 -4 36
20 -6 24 -23 28 -23 6z"/>
<path d="M5310 2320 c0 -5 4 -10 9 -10 6 0 13 5 16 10 3 6 -1 10 -9 10 -9 0
-16 -4 -16 -10z"/>
<path d="M2035 2310 c-3 -6 1 -13 10 -16 19 -8 30 0 20 15 -8 14 -22 14 -30 1z"/>
<path d="M5448 2293 c7 -3 16 -2 19 1 4 3 -2 6 -13 5 -11 0 -14 -3 -6 -6z"/>
<path d="M5191 2254 c0 -11 3 -14 6 -6 3 7 2 16 -1 19 -3 4 -6 -2 -5 -13z"/>
<path d="M2010 2230 c0 -11 4 -20 9 -20 5 0 11 9 14 20 3 13 0 20 -9 20 -8 0
-14 -9 -14 -20z"/>
<path d="M5300 2243 c0 -5 4 -14 9 -21 6 -10 10 -9 14 7 3 14 0 21 -9 21 -8 0
-14 -3 -14 -7z"/>
<path d="M1796 2201 c-4 -5 -2 -12 3 -15 5 -4 12 -2 15 3 4 5 2 12 -3 15 -5 4
-12 2 -15 -3z"/>
<path d="M2047 2176 c-3 -8 2 -16 12 -19 14 -3 17 0 14 14 -6 22 -19 25 -26 5z"/>
<path d="M5320 2168 c0 -7 4 -19 9 -26 7 -11 9 -11 13 0 3 7 -1 19 -8 26 -11
10 -14 10 -14 0z"/>
<path d="M5270 2163 c0 -4 5 -15 10 -23 8 -13 10 -13 10 2 0 9 -4 20 -10 23
-5 3 -10 3 -10 -2z"/>
<path d="M2133 2149 c23 -13 22 -26 -3 -34 -30 -10 -24 -30 14 -43 47 -17 135
3 133 30 -2 23 -5 23 -29 -4 l-20 -23 5 23 c4 19 2 22 -14 17 -13 -5 -19 -2
-19 10 0 16 -38 35 -68 35 -16 -1 -15 -1 1 -11z"/>
<path d="M2017 2135 c-9 -7 -17 -21 -17 -31 1 -18 1 -18 14 -1 7 9 18 17 24
17 17 0 23 17 9 23 -7 3 -21 -1 -30 -8z"/>
<path d="M5230 2120 c0 -11 5 -20 10 -20 6 0 10 9 10 20 0 11 -4 20 -10 20 -5
0 -10 -9 -10 -20z"/>
<path d="M2028 2083 c6 -2 18 -2 25 0 6 3 1 5 -13 5 -14 0 -19 -2 -12 -5z"/>
<path d="M5277 2075 c3 -8 9 -12 14 -9 12 7 11 11 -5 17 -10 4 -13 1 -9 -8z"/>
<path d="M2240 2044 c0 -8 5 -12 10 -9 6 3 10 10 10 16 0 5 -4 9 -10 9 -5 0
-10 -7 -10 -16z"/>
<path d="M2045 2040 c3 -5 14 -10 23 -10 15 0 15 2 2 10 -20 13 -33 13 -25 0z"/>
<path d="M1891 2014 c0 -11 3 -14 6 -6 3 7 2 16 -1 19 -3 4 -6 -2 -5 -13z"/>
<path d="M5280 2010 c0 -5 5 -10 11 -10 5 0 7 5 4 10 -3 6 -8 10 -11 10 -2 0
-4 -4 -4 -10z"/>
<path d="M2160 1990 c0 -5 5 -10 10 -10 6 0 10 5 10 10 0 6 -4 10 -10 10 -5 0
-10 -4 -10 -10z"/>
<path d="M2208 1988 c9 -9 15 -9 24 0 9 9 7 12 -12 12 -19 0 -21 -3 -12 -12z"/>
<path d="M5155 1970 c-7 -12 2 -30 16 -30 5 0 9 9 9 20 0 21 -15 27 -25 10z"/>
<path d="M5040 1955 c0 -8 7 -15 15 -15 8 0 15 7 15 15 0 8 -7 15 -15 15 -8 0
-15 -7 -15 -15z"/>
<path d="M2235 1940 c-3 -11 -10 -20 -15 -20 -4 0 -10 -9 -13 -20 -3 -13 0
-20 9 -20 8 0 13 6 12 13 -2 6 5 11 14 9 9 -1 19 2 23 8 3 5 -2 10 -11 10 -16
0 -16 1 1 20 16 17 16 20 2 20 -9 0 -19 -9 -22 -20z"/>
<path d="M2150 1936 c0 -8 4 -17 9 -20 5 -4 7 3 4 14 -6 23 -13 26 -13 6z"/>
<path d="M5120 1870 c0 -5 5 -10 11 -10 5 0 7 5 4 10 -3 6 -8 10 -11 10 -2 0
-4 -4 -4 -10z"/>
<path d="M2280 1850 c0 -5 9 -10 21 -10 11 0 17 5 14 10 -3 6 -13 10 -21 10
-8 0 -14 -4 -14 -10z"/>
<path d="M5148 1843 c6 -2 18 -2 25 0 6 3 1 5 -13 5 -14 0 -19 -2 -12 -5z"/>
<path d="M5230 1831 c0 -6 5 -13 10 -16 6 -3 10 1 10 9 0 9 -4 16 -10 16 -5 0
-10 -4 -10 -9z"/>
<path d="M2315 1759 c-4 -6 -5 -12 -2 -15 2 -3 7 2 10 11 7 17 1 20 -8 4z"/>
<path d="M4962 1721 c-13 -10 -19 -22 -14 -25 6 -3 15 1 22 9 15 18 41 19 59
3 10 -11 12 -9 9 7 -5 28 -48 31 -76 6z"/>
<path d="M2400 1717 c0 -18 38 -39 61 -32 10 4 19 15 19 26 0 17 -3 18 -20 7
-16 -10 -24 -10 -40 0 -16 10 -20 10 -20 -1z"/>
<path d="M4867 1706 c-2 -6 -3 -22 -2 -36 2 -29 38 -36 43 -7 2 11 -3 17 -14
17 -17 0 -17 1 1 13 17 13 17 14 -3 19 -11 3 -23 1 -25 -6z"/>
<path d="M2306 1685 c-3 -8 -1 -15 4 -15 6 0 10 7 10 15 0 8 -2 15 -4 15 -2 0
-6 -7 -10 -15z"/>
<path d="M2385 1670 c3 -5 8 -10 11 -10 2 0 4 5 4 10 0 6 -5 10 -11 10 -5 0
-7 -4 -4 -10z"/>
<path d="M4940 1668 c0 -7 8 -22 17 -33 14 -18 15 -18 9 -2 -3 10 -6 25 -6 33
0 8 -4 14 -10 14 -5 0 -10 -6 -10 -12z"/>
<path d="M4980 1670 c0 -5 5 -10 10 -10 6 0 10 5 10 10 0 6 -4 10 -10 10 -5 0
-10 -4 -10 -10z"/>
<path d="M2505 1621 c-3 -5 -1 -12 5 -16 5 -3 10 1 10 9 0 18 -6 21 -15 7z"/>
<path d="M4800 1611 c0 -12 26 -32 33 -25 3 4 0 13 -8 20 -16 16 -25 18 -25 5z"/>
<path d="M2450 1585 c0 -8 5 -15 10 -15 6 0 10 7 10 15 0 8 -4 15 -10 15 -5 0
-10 -7 -10 -15z"/>
<path d="M4877 1583 c7 -17 18 -16 33 2 11 13 9 15 -13 13 -16 -1 -23 -7 -20
-15z"/>
<path d="M2410 1553 c0 -4 5 -15 10 -23 8 -13 10 -13 10 2 0 9 -4 20 -10 23
-5 3 -10 3 -10 -2z"/>
<path d="M2593 1543 c-18 -7 -16 -23 2 -23 8 0 15 7 15 15 0 8 -1 15 -2 14 -2
0 -9 -3 -15 -6z"/>
<path d="M2637 1483 c-4 -3 -7 -11 -7 -17 0 -6 5 -5 12 2 6 6 9 14 7 17 -3 3
-9 2 -12 -2z"/>
<path d="M2190 1389 c0 -12 5 -19 12 -17 18 6 20 25 3 31 -10 5 -15 0 -15 -14z"/>
<path d="M4560 1396 c0 -9 7 -16 16 -16 17 0 14 22 -4 28 -7 2 -12 -3 -12 -12z"/>
<path d="M2868 1303 c-19 -5 -31 -30 -18 -38 12 -7 60 5 60 15 0 13 -24 27
-42 23z"/>
<path d="M2990 1290 c0 -5 5 -10 10 -10 6 0 10 5 10 10 0 6 -4 10 -10 10 -5 0
-10 -4 -10 -10z"/>
<path d="M3133 1270 c9 -6 17 -18 17 -26 0 -9 6 -14 13 -11 6 2 12 12 12 23 0
14 -8 20 -30 22 -25 2 -27 1 -12 -8z"/>
<path d="M4190 1269 c0 -5 5 -7 10 -4 6 3 10 8 10 11 0 2 -4 4 -10 4 -5 0 -10
-5 -10 -11z"/>
<path d="M3245 1220 c-8 -13 5 -13 25 0 13 8 13 10 -2 10 -9 0 -20 -4 -23 -10z"/>
<path d="M3390 1190 c0 -5 9 -10 20 -10 11 0 20 5 20 10 0 6 -9 10 -20 10 -11
0 -20 -4 -20 -10z"/>
<path d="M3463 1186 c9 -7 17 -18 17 -25 0 -6 5 -11 10 -11 11 0 13 11 4 34
-3 9 -16 16 -28 16 -20 -1 -20 -2 -3 -14z"/>
<path d="M3356 1164 c-4 -10 -1 -14 6 -12 15 5 23 28 10 28 -5 0 -13 -7 -16
-16z"/>
<path d="M3840 1130 c0 -5 5 -10 11 -10 5 0 7 5 4 10 -3 6 -8 10 -11 10 -2 0
-4 -4 -4 -10z"/>
</g>
</svg>
